<svg id="Layer_1" data-name="Layer 1" xmlns="http://www.w3.org/2000/svg" viewBox="0 0 50 41.89"><defs><style>.cls-1{fill:#019d4e;}.cls-2{fill:#abd590;}</style></defs><title>about_arrow-01</title><path class="cls-1" d="M9,11.73a4.11,4.11,0,0,1-1.63,1.36,5.08,5.08,0,0,1-2.22.49,4.92,4.92,0,0,1-3.69-1.51A5.15,5.15,0,0,1,0,8.33,5.15,5.15,0,0,1,1.5,4.56,5.07,5.07,0,0,1,5.27,3a4.75,4.75,0,0,1,2.13.47A4.23,4.23,0,0,1,9,4.87V3.26h1.26V13.32H9ZM9,8.22A3.91,3.91,0,0,0,7.87,5.43,3.54,3.54,0,0,0,5.23,4.24,3.66,3.66,0,0,0,2.47,5.43a4.14,4.14,0,0,0-1.13,3,3.88,3.88,0,0,0,1.13,2.84A3.69,3.69,0,0,0,5.2,12.39a3.53,3.53,0,0,0,2.67-1.23A4.14,4.14,0,0,0,9,8.22Z"/><path class="cls-1" d="M13.55,0V5A5.33,5.33,0,0,1,15.33,3.5,5,5,0,0,1,17.5,3a4.82,4.82,0,0,1,3.59,1.52,5.17,5.17,0,0,1,1.47,3.72,5.17,5.17,0,0,1-1.5,3.78,5.06,5.06,0,0,1-3.77,1.52,4.63,4.63,0,0,1-2-.44,5.16,5.16,0,0,1-1.69-1.34v1.52H12.28V0Zm0,8.39a3.92,3.92,0,0,0,1.14,2.8,3.51,3.51,0,0,0,2.62,1.2,3.63,3.63,0,0,0,2.75-1.2,4.15,4.15,0,0,0,1.14-3,3.88,3.88,0,0,0-1.13-2.83,3.67,3.67,0,0,0-2.72-1.15,3.54,3.54,0,0,0-2.69,1.2A4.21,4.21,0,0,0,13.55,8.39Z"/><path class="cls-1" d="M23.56,8.3a5.27,5.27,0,0,1,1.52-3.79,4.82,4.82,0,0,1,3.6-1.57A5.05,5.05,0,0,1,32.4,4.48,5,5,0,0,1,34,8.17,5.4,5.4,0,0,1,32.44,12a4.87,4.87,0,0,1-3.66,1.59A5,5,0,0,1,25.08,12,5.19,5.19,0,0,1,23.56,8.3Zm1.36,0A4.1,4.1,0,0,0,26,11.19a3.62,3.62,0,0,0,2.76,1.18,3.53,3.53,0,0,0,2.71-1.18,4.09,4.09,0,0,0,1.1-2.93,4,4,0,0,0-1.11-2.93,3.74,3.74,0,0,0-2.82-1.15A3.46,3.46,0,0,0,26,5.36,4.1,4.1,0,0,0,24.92,8.28Z"/><path class="cls-1" d="M35.43,3.26H36.7V8.6a4.79,4.79,0,0,0,.67,2.91,2.6,2.6,0,0,0,2.19.86A3.26,3.26,0,0,0,41.09,12a2.8,2.8,0,0,0,1.06-1,3.19,3.19,0,0,0,.33-.93,11.33,11.33,0,0,0,.1-1.86v-5h1.29V13.32H42.58V12.23a3.5,3.5,0,0,1-1.31,1,4.16,4.16,0,0,1-1.74.32,3.83,3.83,0,0,1-3.14-1.17,6.21,6.21,0,0,1-1-3.9Z"/><path class="cls-1" d="M46.8,13.32V4.56H44.89V3.26H46.8V0h1.29V3.26H50v1.3H48.09v8.76Z"/><path class="cls-2" d="M23.25,33.29,15.4,21.17a2.07,2.07,0,0,0-1.75-1h0a2.08,2.08,0,0,0-1.75,3.21L23.25,40.94a2.08,2.08,0,0,0,3.5,0L38.1,23.43a2.08,2.08,0,0,0-1.75-3.21h0a2.07,2.07,0,0,0-1.75,1L26.75,33.29A2.08,2.08,0,0,1,23.25,33.29Z"/></svg>