<svg id="Layer_1" data-name="Layer 1" xmlns="http://www.w3.org/2000/svg" viewBox="0 0 110.27 40"><defs><style>.cls-1{fill:#fff;}</style></defs><title>nosh_nav_logo</title><path class="cls-1" d="M26.6,39.26H19.9V26.73A6.28,6.28,0,0,0,18,22.13a6.35,6.35,0,0,0-4.64-1.93,6.45,6.45,0,0,0-4.68,1.9A6.27,6.27,0,0,0,6.7,26.73V39.26H0V26.72a12.72,12.72,0,0,1,3.87-9.38A12.88,12.88,0,0,1,13.3,13.5a12.88,12.88,0,0,1,9.43,3.84,12.72,12.72,0,0,1,3.87,9.38Z"/><path class="cls-1" d="M56.58,26.72A13.16,13.16,0,0,1,43.32,40,13.13,13.13,0,0,1,30,26.72a12.69,12.69,0,0,1,3.88-9.38,12.87,12.87,0,0,1,9.42-3.84A13.13,13.13,0,0,1,56.58,26.72Zm-6.7,0a6.61,6.61,0,0,0-6.56-6.52,6.39,6.39,0,0,0-4.66,1.9,6.25,6.25,0,0,0-1.94,4.62A6.58,6.58,0,0,0,48,31.37,6.33,6.33,0,0,0,49.88,26.72Z"/><path class="cls-1" d="M80.2,31.64A6.64,6.64,0,0,1,78.61,36q-3.18,3.89-9,3.73a16.08,16.08,0,0,1-5.09-1A14.26,14.26,0,0,1,60,36.18l3.72-4.82a8.23,8.23,0,0,0,5.71,2.54h.15a5.35,5.35,0,0,0,2.23-.45,1.86,1.86,0,0,0,1.29-1.69v-.2a2,2,0,0,0-1.54-1.63l-2.33-.45a20,20,0,0,1-3.77-1.09,6.87,6.87,0,0,1-4.52-6.8q0-4.66,4.62-7A10,10,0,0,1,70,13.5a15.56,15.56,0,0,1,5.17.84,9,9,0,0,1,4.36,2.73l-4.46,4a5.21,5.21,0,0,0-3.77-1.78c-2.12,0-3.18.69-3.18,2.09v.09c0,.67.86,1.23,2.58,1.7l3.27.64q6.25,1.2,6.26,7.66Z"/><path class="cls-1" d="M110.27,39.26h-6.7V26.73A6.61,6.61,0,0,0,97,20.2a6.46,6.46,0,0,0-4.69,1.9,6.27,6.27,0,0,0-1.94,4.63V39.26h-6.7V0h6.7V15.19A13.45,13.45,0,0,1,97,13.5a12.88,12.88,0,0,1,9.43,3.84,12.72,12.72,0,0,1,3.87,9.38Z"/></svg>