<svg id="Layer_1" data-name="Layer 1" xmlns="http://www.w3.org/2000/svg" viewBox="0 0 642.2 268.01"><defs><style>.cls-1{fill:#f05123;}.cls-2{fill:#019d4e;}</style></defs><title>nosh_logo_tagline</title><path class="cls-1" d="M190.89,189H158.62v-60.3a30.2,30.2,0,0,0-9.35-22.17A30.56,30.56,0,0,0,127,97.26a31,31,0,0,0-22.55,9.18,30,30,0,0,0-9.35,22.29V189H62.79V128.69q0-26.72,18.64-45.2T126.84,65q26.76,0,45.41,18.49t18.64,45.2Z"/><path class="cls-1" d="M335.23,128.69q0,26.72-18.52,45.32t-45.29,18.61q-27,0-45.53-18.49t-18.52-45.44q0-26.72,18.64-45.2T271.42,65q26.76,0,45.29,18.49T335.23,128.69Zm-32.27,0a31.77,31.77,0,0,0-31.54-31.43A30.87,30.87,0,0,0,249,106.43a30,30,0,0,0-9.32,22.26,31.66,31.66,0,1,0,63.32,0Z"/><path class="cls-1" d="M449,152.37a32.08,32.08,0,0,1-7.65,20.84q-15.3,18.69-43.49,18a77.54,77.54,0,0,1-24.5-5q-13.26-4.77-21.63-11.95L369.64,151q12.9,12.19,27.48,12.19h.72a26,26,0,0,0,10.75-2.15q6.21-2.87,6.21-8.13V152c-.47-3.66-2.95-6.29-7.4-7.89q-2.64-.47-11.24-2.15A95.38,95.38,0,0,1,378,136.69q-21.75-9.32-21.74-32.74,0-22.45,22.22-33.69A48.17,48.17,0,0,1,399.75,65a73.91,73.91,0,0,1,24.85,4.06q14.82,5,21,13.15l-21.51,19.36Q415.77,93,406,93q-15.3,0-15.29,10.07v.47q0,4.8,12.42,8.15,1,.24,15.78,3.11Q449,120.52,449,151.65Z"/><path class="cls-1" d="M593.8,189H561.53v-60.3a30.2,30.2,0,0,0-9.35-22.17,30.56,30.56,0,0,0-22.31-9.3,31,31,0,0,0-22.55,9.18A30,30,0,0,0,498,128.73V189H465.71V0H498V73.13A65,65,0,0,1,529.75,65q26.76,0,45.41,18.49t18.64,45.2Z"/><path class="cls-2" d="M2.14,229.87a5.93,5.93,0,0,1,4.58-2.16c3.17-.13,5.54.66,7.09,2.35a8.34,8.34,0,0,1,2.47,5c.1,1.66-.32,2.54-1.27,2.67a3.8,3.8,0,0,1-2.66-.56c-.37,0-.85-.23-1.42-.81a3.39,3.39,0,0,1-1-1.42l-.68-1.55c-.34-.74-.75-1.15-1.24-1.24q-.93.38-.93,1.86a9.18,9.18,0,0,0,2.78,5.57,10.09,10.09,0,0,0,1,1.18c3.25,3.59,5,6.48,5.07,8.67,0,1.4-.29,2.33-.87,2.78a9,9,0,0,1-6.93,3.28,9.17,9.17,0,0,1-7.06-2.66,2.1,2.1,0,0,1-.74-1.42,3.21,3.21,0,0,1-.25-1.55,9.17,9.17,0,0,1,0-2.6q.38-2,2.91-2c.62,0,1,.37,1.18,1.11a14,14,0,0,0,1.52,4.15,2.52,2.52,0,0,0,2.32.93c1.36-.08,2-.85,2-2.29a5.84,5.84,0,0,0-2.08-4A6.26,6.26,0,0,0,6.69,244a7,7,0,0,1-.78-.59A.79.79,0,0,0,5.6,243a24.4,24.4,0,0,1-3.12-3.28,7.78,7.78,0,0,1-2-4.27A7.08,7.08,0,0,1,2.14,229.87Z"/><path class="cls-2" d="M21.14,241.45l.25-3.16A14.87,14.87,0,0,1,24,231a7.45,7.45,0,0,1,5.94-2.6h.37c2.4,0,4.13.51,5.2,1.55a9,9,0,0,1,2.57,3,18.89,18.89,0,0,1,1.09,2.35,9,9,0,0,1,.31,2.17c.08,1.77-.27,2.78-1.06,3q.87,5.88-1,9.35a17.68,17.68,0,0,1-1.79,3.09,4,4,0,0,1-3.1,1.24,25.54,25.54,0,0,1-3.87-.25A9,9,0,0,1,25,252.31,7.22,7.22,0,0,1,22.19,248,27.53,27.53,0,0,1,21.14,241.45Zm11.33-5.82c-.29-1.65-1.09-2.41-2.41-2.29a2.44,2.44,0,0,0-1.92,1.49,11,11,0,0,0-1,5.6,31.17,31.17,0,0,0,.49,4.95A6.56,6.56,0,0,0,28.88,248a1.48,1.48,0,0,0,1.48.81c1.16,0,2-1,2.54-2.91l.5-1.49a.47.47,0,0,0,.12-.62,10.69,10.69,0,0,0,.68-3.65,1.88,1.88,0,0,1-.74-.8,5.38,5.38,0,0,1-.37-1.43,1.48,1.48,0,0,1-.5-1.17A9,9,0,0,0,32.47,235.63Z"/><path class="cls-2" d="M71.84,250.12a1.32,1.32,0,0,0-.49-1,1.42,1.42,0,0,1-.5-1,11.81,11.81,0,0,0-.25-2,5,5,0,0,0-.06-1.8,10.63,10.63,0,0,0,0-1.8q-.09-1.67-.09-3l-.62,1.12q-2,4.83-2,5.07l-1.43,4.34L66,251.6a6.75,6.75,0,0,0-.18,3.28c.08.38-.35.77-1.3,1.18a10.8,10.8,0,0,1-1.86-.37q-.49,0-1,0a11.11,11.11,0,0,1-2.57-.65q0-.25-1-1L58,249.74a36.12,36.12,0,0,1,.38-4.2V244l.24-2.05.31-3.83v-1.24q-1.66,4.77-2.23,6.19a29.79,29.79,0,0,1-1.36,5c-.86,3.55-1.22,5.84-1.05,6.88a.76.76,0,0,1-.22.58,4.62,4.62,0,0,1-1.08.65,23.43,23.43,0,0,1-4.15-.55l-1.11-.5c-.37-.12-.7-.62-1-1.49a9,9,0,0,1-.5-2.22A2.67,2.67,0,0,1,46,250l-.06-.74q-.43-6.63-.43-9.1a4.49,4.49,0,0,0,.12-1.24v-1.73c0-.74,0-1.71.16-2.91s.15-2.06.15-2.6l-.06-2c.17-.66,1-1.08,2.6-1.24a4,4,0,0,1,1.8.37,3.56,3.56,0,0,1,1.57,1.92,11.08,11.08,0,0,1,.41,2.85q.06,1.72,0,2.91a18.94,18.94,0,0,0,.31,4.7,25.06,25.06,0,0,0,1-2.6c.08-.08.51-1.18,1.3-3.28l1.3-3.9a18.93,18.93,0,0,1,1.58-2,3.07,3.07,0,0,1,1-.16,4.69,4.69,0,0,1,2.13.47l1.3.55c.06,0,.42.24,1.08.65a3.46,3.46,0,0,1,.81,1.43,5.38,5.38,0,0,1,.37,1.73c.08,1.65.12,2.52.12,2.6v.74c-.08,2.48,0,3.84.19,4.09a25.61,25.61,0,0,1,1.67-4.15l.62-1.61,1.24-2.54a5.63,5.63,0,0,1,.68-1.73l.62-1.92a5,5,0,0,1,3.09-3,10.15,10.15,0,0,1,2.36.68c.82,0,1.56.56,2.23,1.67a3.4,3.4,0,0,1,.43,1.8c0,.16-.06,1.17-.19,3v2a5,5,0,0,0-.06,1.3l-.06,1.92v3.65a5.08,5.08,0,0,1-.06,1l.18,3.47a2.47,2.47,0,0,1,.25,1.24,10.44,10.44,0,0,0,1.49,4.7l.43.81q-1.42,2.47-4.46,1.48a2.41,2.41,0,0,0-.65-.74,12.66,12.66,0,0,1-1.08-1,14.93,14.93,0,0,0-.87-1.3A4.7,4.7,0,0,0,71.84,250.12Z"/><path class="cls-2" d="M91.53,255.75l-.62-.12-.87-.87a.61.61,0,0,1-.56-.31c-.45-.54-1.28-1.61-2.47-3.22l-.93-3.4a3.84,3.84,0,0,0-.37-1.74c-.42-1.85-.66-2.92-.75-3.19a12.25,12.25,0,0,1-.15-2.25,13.74,13.74,0,0,1,.15-2.73,34.89,34.89,0,0,1,2.3-5.82,2.53,2.53,0,0,0,.68-1.48l1-1.43a8.85,8.85,0,0,1,2.91-2.35,7.86,7.86,0,0,1,2.1-.62,7.16,7.16,0,0,1,2,.31q3.72.87,4.65,2.17l.18.31a9.92,9.92,0,0,1,1.36,5.13c-.12,1-.22,1.9-.31,2.61a16.13,16.13,0,0,1-1.36,3.83,17.64,17.64,0,0,1-1.79,2.79,4.43,4.43,0,0,1-1.86,1,2.93,2.93,0,0,1-1.05.12H94.31a3.25,3.25,0,0,0-.8-.06,7.53,7.53,0,0,1-1.8-.31,14.14,14.14,0,0,0,.78,3.87,10.14,10.14,0,0,0,1.27,3.07,10.22,10.22,0,0,0,2,1.3,3.7,3.7,0,0,0,2,.09,3,3,0,0,0,1.79-.84l1.61-2c1-1.4,2.09-1.53,3.16-.37a1.8,1.8,0,0,1,.59,1.58,16.42,16.42,0,0,1-1.27,3.06,12.53,12.53,0,0,1-2,2.48,9.19,9.19,0,0,1-2.29,1,6,6,0,0,1-1.73-.19,3.29,3.29,0,0,1-2.11-.06c0-.08-.11-.13-.34-.15a4.42,4.42,0,0,1-.9-.22l.13-.06h-.75L92,255.75Zm4.83-24.58q-.14-.3-.84-.24a1.27,1.27,0,0,0-1.08.74,17.17,17.17,0,0,0-2.73,8.6c1.4.33,2.6-.28,3.59-1.85C96.58,234.37,96.93,232,96.36,231.17Z"/><path class="cls-2" d="M119.45,229.63a10,10,0,0,0-.25-1.06,2.47,2.47,0,0,1-.31-1.11c0-.33,0-.5-.06-.5a2.76,2.76,0,0,1,1.11-2.13,3.44,3.44,0,0,1,2.79-.34l2,.74,2.84.68,1.43-4.08a4.38,4.38,0,0,0,.59-1.37,2.72,2.72,0,0,1,.21-.8,6.1,6.1,0,0,1,.5-1.3l.25-1a2.26,2.26,0,0,1,1.73-1.05,1.41,1.41,0,0,1,1.3,0,3.12,3.12,0,0,1,2.54,1.23,4,4,0,0,1-.19,1,12.65,12.65,0,0,0-.31,1.8l-1.54,6.19h.49l1.55-.06a3.51,3.51,0,0,0,.68.06c.91-.21,1.61-.34,2.1-.4a7.08,7.08,0,0,0,1-.16,3.39,3.39,0,0,0,1.06,0,3,3,0,0,1,1.79.53,1.69,1.69,0,0,1,.93,1.42c0,.56-.39,1.05-1.18,1.46l-.55.74a8.83,8.83,0,0,0-1.74.87c-.57.33-3,.89-7.12,1.67l-.43,3.16a1.49,1.49,0,0,1,.13.49c-.29,1.78-.54,4-.75,6.63,0,.95.06,1.59.06,1.91v1.68a2.82,2.82,0,0,0-.06.8,21.64,21.64,0,0,0,.37,3.62c.25,1.39.4,2.22.44,2.51a7.31,7.31,0,0,1,.06,1,1.38,1.38,0,0,1-.87,1.36,7.47,7.47,0,0,1-3.34-.68c-.74-.12-1.07-.29-1-.49a4.4,4.4,0,0,1-1-1.18,1.3,1.3,0,0,0-.06-.56c-.29-.12-.44-.45-.44-1a1.05,1.05,0,0,1-.12-.43l-.43-1.55a2.53,2.53,0,0,1-.38-2,1.53,1.53,0,0,0-.18-.62v-.43a3.34,3.34,0,0,1,.06-.74,12.48,12.48,0,0,1,.06-4.12c.25-1.59.41-2.74.5-3.44a1,1,0,0,1,.12-.8,9.18,9.18,0,0,1,.25-1.74l.56-3.52a2.19,2.19,0,0,0-.75-.13,16,16,0,0,1-3.4-.93l-.74-.43a2.76,2.76,0,0,1-1.24-.46A2.49,2.49,0,0,1,119.45,229.63Z"/><path class="cls-2" d="M150.83,229.81l-.68,8.42.37-.87a20.62,20.62,0,0,1,1.8-2.6,31.8,31.8,0,0,1,1.92-3.28l1-1.24.55-.86a3.52,3.52,0,0,1,2-.93,5.27,5.27,0,0,1,3.59,1q.44.06,1.11.93a2.45,2.45,0,0,1,.93,2.29,1.71,1.71,0,0,1-.06.37q-1.18,9.66-1.24,13.53a24.28,24.28,0,0,0,.62,6.47,2.39,2.39,0,0,1-1.61,3,2.27,2.27,0,0,1-1.73.12,3.56,3.56,0,0,1-1.58-.27,3.26,3.26,0,0,1-1.09-1.27l-.31-1.24a3.19,3.19,0,0,1-.24-1.36l-.25-1.8a9.64,9.64,0,0,0,.06-1.61l.06-1.61a14,14,0,0,1,.06-3.4l.13-2.67v-1.54c0-.13-.08-.41-.37-.87-1.08.83-2.27,3.59-3.59,8.3l-1.61,4.95c-.75,2.64-1.55,4.06-2.42,4.27l-.68.12a7.9,7.9,0,0,1-2.35-.49,3.89,3.89,0,0,1-1.18-2.6.76.76,0,0,0,.06-.56,5.39,5.39,0,0,1,.13-2.23,1.63,1.63,0,0,1-.06-.49l.06-.93a9,9,0,0,1-.25-1.77,9.75,9.75,0,0,1,0-2.19,3.66,3.66,0,0,1,.37-1.67,3.39,3.39,0,0,1-.55-1.68,24.18,24.18,0,0,1-.16-3.8c.06-.85.09-1.64.09-2.39a18.55,18.55,0,0,1-.06-2.66l.43-5,.44-3.59a4.82,4.82,0,0,0-.28-1.33,5.39,5.39,0,0,1-.16-2.14,7,7,0,0,1,.28-1.58,11.41,11.41,0,0,0,.47-1.83,5.12,5.12,0,0,1,.25-1.85l.37-1.12c0-.29.57-.76,1.61-1.42h.68a9.09,9.09,0,0,1,3.53.8c.33.21.41.93.24,2.17-.08,1.73-.14,2.81-.18,3.22s-.15,2.21-.31,5.39S150.83,229.4,150.83,229.81Z"/><path class="cls-2" d="M177.76,234.52l-1,10.33v.72a3,3,0,0,1,0,1.2v4.46a5.71,5.71,0,0,1,0,2.48,4.57,4.57,0,0,0-.87.4,3.43,3.43,0,0,1-1.89.12,6.2,6.2,0,0,1-2-.46l-.74-.19a.77.77,0,0,1-.81-.55,1.65,1.65,0,0,1-.86-1.3c-.13-.21,0-.5.43-.87a7.36,7.36,0,0,0-.25-.9,2.6,2.6,0,0,1-.12-1.08c.12-.21.06-.52-.19-.93a7.17,7.17,0,0,1,.19-1.55c.16-.16.2-.76.12-1.79a3,3,0,0,0,.44-1.74,3,3,0,0,1,.18-2,6,6,0,0,0,.5-2,14.83,14.83,0,0,1,.55-3,5.92,5.92,0,0,1,.59-2,10.24,10.24,0,0,1,.78-1.61l1-1,1.11-.44h.06a2.08,2.08,0,0,1,1.49.07,7.51,7.51,0,0,1,2.16,1,1.23,1.23,0,0,0-.3.74c0,.33-.09.62-.13.87A2.19,2.19,0,0,0,177.76,234.52Zm.12-15.67h.19c1.44.09,2.38.51,2.82,1.27a3.45,3.45,0,0,1,.49,2.2,5.35,5.35,0,0,1-1.67,2.6,3.9,3.9,0,0,1-2.76,1.49,6.13,6.13,0,0,1-1.45-.37,9.56,9.56,0,0,1-1.15-.44.55.55,0,0,0-.37-.37c-1.07-.41-1.67-1.46-1.79-3.16,0-.16.12-.29.37-.37-.17,0-.19-.25-.06-.74a2.65,2.65,0,0,1,1.92-1.8A15.67,15.67,0,0,1,177.88,218.85Z"/><path class="cls-2" d="M184.76,247.76c0-.16,0-.78.12-1.85a7.11,7.11,0,0,1-.5-3.35q-.06-6.62,0-6.74a.85.85,0,0,0-.15-.47,1.38,1.38,0,0,1-.19-.71V234a5.94,5.94,0,0,1,.25-3.1,1.29,1.29,0,0,1,.68-.92,1.41,1.41,0,0,1,1.24-.62,4.48,4.48,0,0,1,1.36.18c.29-.12.56,0,.81.5a8.38,8.38,0,0,0,.8.31l.31.24a1,1,0,0,1,.65.16,1.52,1.52,0,0,1,.22.77l.55,5.39v1a7,7,0,0,1,.13,1.18l.06,2.91.25.06a14.17,14.17,0,0,1,.83-2.51,9.39,9.39,0,0,0,.59-1.52,1.81,1.81,0,0,1,.43-.92,2.93,2.93,0,0,0,.38-1.06,1.35,1.35,0,0,1,.49-.8,8.26,8.26,0,0,1,1.05-2l.19-.5a5.24,5.24,0,0,0,.37-.62,5.71,5.71,0,0,0,1-1l.5-.37c.08,0,.16-.11.24-.34s.62-.36,1.61-.4a5.44,5.44,0,0,1,2,0,2.11,2.11,0,0,1,.68.06l.38.37.49.13c.7.37,1.16,1.26,1.36,2.66a31.86,31.86,0,0,0,.31,5.57,28.41,28.41,0,0,0,1.46,6.31,10.14,10.14,0,0,0,2,3.72,3.28,3.28,0,0,1,.5,3.53,1.81,1.81,0,0,1-1.43,1,3.67,3.67,0,0,1-1.24-.06,1.55,1.55,0,0,1-.8-.19,1.15,1.15,0,0,1-1.18-.31,1,1,0,0,1-.86-.56,32.22,32.22,0,0,1-2.51-3.53c-.23-.45-.39-.76-.5-.92a2.13,2.13,0,0,1-.21-.44c-.05-.12-.11-.31-.19-.55a2.74,2.74,0,0,0-.46-1,1.37,1.37,0,0,1-.34-.71,2.27,2.27,0,0,1-.25-1,.71.71,0,0,1-.37-.62c-.21-.12-.35-.49-.44-1.11l-.24-1.61-.13-.06a16.26,16.26,0,0,0-3.53,8.85,9.63,9.63,0,0,1-.24,1.61c-.21.33-.13.85.24,1.55v.37c0,.16-.22.47-.68.93l-.86.06h-.69a1.55,1.55,0,0,0-.49.18,1.29,1.29,0,0,0-.62.13.84.84,0,0,1-.68-.06,5.87,5.87,0,0,1-1.3-.16,2.83,2.83,0,0,0-.56-.18,1.17,1.17,0,0,1-.62-.41.45.45,0,0,1-.43-.37,4.41,4.41,0,0,1-1.61-2.72v-.43l-.06-.5A4.42,4.42,0,0,0,184.76,247.76Z"/><path class="cls-2" d="M219.42,229.87a22.72,22.72,0,0,1,3.72.56,10,10,0,0,1,2.41,1.18,7.82,7.82,0,0,1,2,1.27l1.12,1c1.44,1,2,2.53,1.61,4.64a24.29,24.29,0,0,0-.37,4.58V245l.06,1c-.09,1-.13,2.17-.13,3.53-.08.91-.12,1.4-.12,1.48a10.2,10.2,0,0,0-.5,2.54,12.82,12.82,0,0,1-.43,2.54l-.74,2.66c-.29.74-.81,1.92-1.55,3.53a1.43,1.43,0,0,0-.31.56,4,4,0,0,1-.56,1,7.23,7.23,0,0,1-.8,1.05,4.68,4.68,0,0,0-.56.59c0,.12-.15.32-.46.59a3.58,3.58,0,0,1-.9.58,2.88,2.88,0,0,1-1.55.87,12.58,12.58,0,0,1-3,.56,14.8,14.8,0,0,1-7.24-2.54,3,3,0,0,1-1.27-2.94,1.58,1.58,0,0,1,2.13-1.64,5.69,5.69,0,0,1,2.17,1.42,12.38,12.38,0,0,0,2,.53,6.84,6.84,0,0,1,.84.15c.53.21,1.27,0,2.22-.74a9.1,9.1,0,0,0,3-3.28,15.08,15.08,0,0,1,.93-3.53,21,21,0,0,0,.68-2.72l-.61.62c0,.12-.17.28-.5.49a2.55,2.55,0,0,1-.8.37l-1.68.44a5.44,5.44,0,0,1-1.51,0c-.52-.07-.82-.1-.9-.1l-.87-.18a19.15,19.15,0,0,1-2.66-1.49,2.33,2.33,0,0,0-.56-.43,8.55,8.55,0,0,1-1.61-1.8s0-.26-.12-.68c-.21-.2-.31-.82-.31-1.85l.5-4a3.58,3.58,0,0,1,.18-1.11,2.17,2.17,0,0,1,0-1.24l.37-2.29q-.18.06-.12-.18a4,4,0,0,1,.19-.59,5,5,0,0,0,.18-.65,4.54,4.54,0,0,1,.22-1.58c.14-.39.3-.84.46-1.33a14.43,14.43,0,0,1,.87-2.17,2.25,2.25,0,0,1,.31-.77,2.49,2.49,0,0,1,.74-.9A6.34,6.34,0,0,1,219.42,229.87Zm1,7.25c-.08.29-.33.9-.74,1.85l-.43,1.37-.5,1a2.46,2.46,0,0,0-.19,1.05,5.51,5.51,0,0,0-.49,1.49,5.67,5.67,0,0,0-.56,2.5,7.47,7.47,0,0,0,.19,3.07l1.42,1.67.93.06.62-.62a4.24,4.24,0,0,0,.87-1.48s.24-.44.61-1.18a2.14,2.14,0,0,0,.53-.59,5.42,5.42,0,0,1,.65-.77l.19-.62a1.2,1.2,0,0,0,.15-1.08,4.44,4.44,0,0,1,.16-1.95q.8-3.54.12-4.9a3.33,3.33,0,0,0-.65-1.6,1.59,1.59,0,0,0-2.88.68Z"/><path class="cls-2" d="M238.12,229.87a5.93,5.93,0,0,1,4.58-2.16c3.17-.13,5.54.66,7.09,2.35a8.34,8.34,0,0,1,2.47,5c.1,1.66-.32,2.54-1.27,2.67a3.8,3.8,0,0,1-2.66-.56c-.37,0-.85-.23-1.42-.81a3.39,3.39,0,0,1-1-1.42l-.68-1.55c-.33-.74-.75-1.15-1.24-1.24q-.93.38-.93,1.86a9.18,9.18,0,0,0,2.78,5.57,10.09,10.09,0,0,0,1,1.18c3.25,3.59,5,6.48,5.07,8.67,0,1.4-.29,2.33-.86,2.78a9,9,0,0,1-6.94,3.28,9.17,9.17,0,0,1-7.06-2.66,2.1,2.1,0,0,1-.74-1.42,3.21,3.21,0,0,1-.25-1.55,9.17,9.17,0,0,1,0-2.6q.38-2,2.91-2c.62,0,1,.37,1.18,1.11a14,14,0,0,0,1.52,4.15,2.52,2.52,0,0,0,2.32.93c1.36-.08,2-.85,1.95-2.29a5.84,5.84,0,0,0-2.08-4,6.26,6.26,0,0,0-1.2-1.14,7,7,0,0,1-.78-.59.79.79,0,0,0-.31-.37,24.4,24.4,0,0,1-3.12-3.28,7.69,7.69,0,0,1-2-4.27A7,7,0,0,1,238.12,229.87Z"/><path class="cls-2" d="M284.11,248l-.93,2.41a27.74,27.74,0,0,1-1.79,2.67,2.34,2.34,0,0,1-2.08,1.3,8.06,8.06,0,0,1-2.94-.31,8.37,8.37,0,0,1-2.91-1.61,9.61,9.61,0,0,1-1.95-3.13,10.64,10.64,0,0,1-1-3.62,25.76,25.76,0,0,1-.31-2.6v-1.49a9.12,9.12,0,0,1,.19-2.6l.31-1.3a14.9,14.9,0,0,1,1.48-4.95q2.29-4.51,4.71-4.64h.31a.86.86,0,0,0,.37.06h.8a14.29,14.29,0,0,1,2.67.37,6.15,6.15,0,0,0,1.61.25l1.61.31a5.44,5.44,0,0,1,1.95.31c.8.25,1.23.43,1.3.56a10.22,10.22,0,0,1,.34,1.36c.16.78.27,1.35.34,1.7s.11.71.15,1.08a50.91,50.91,0,0,0,1.61,8.42,4.25,4.25,0,0,1,.12.56,11.13,11.13,0,0,0,.44,1.45c.25.73.43,1.33.56,1.83a15.18,15.18,0,0,0,.68,2,14.48,14.48,0,0,0,1.11,2.17c.91,1.28.43,2.27-1.42,3a4.81,4.81,0,0,1-1.3.12,4.1,4.1,0,0,1-1.18-.62,1.56,1.56,0,0,1-1.18-.68l-.49-.12a1.18,1.18,0,0,0-.74-.43q-.13-.14-2.23-5A4.57,4.57,0,0,0,284.11,248Zm-1.92-11.82a3.62,3.62,0,0,0-.62-2.08,2.78,2.78,0,0,0-2-.83,5.45,5.45,0,0,0-1.14,2.07,13,13,0,0,0-.9,3.75,28.54,28.54,0,0,0-.62,5.94,8.68,8.68,0,0,0,1,4.46c.08.16.16.22.25.18s.53-.41,1-1.24A23.55,23.55,0,0,0,282.19,236.13Z"/><path class="cls-2" d="M297.42,231.36c-.29-1.49,0-2.52.93-3.1a2.18,2.18,0,0,1,1.08-.34,22.82,22.82,0,0,1,2.63.72.64.64,0,0,1,.44.12,1,1,0,0,1,.37.12c.37,0,.56.09.56.25a5.28,5.28,0,0,1,.68,2.17,32.43,32.43,0,0,0,.62,4.15.45.45,0,0,1,.06-.19,11.72,11.72,0,0,0,1.24-1.73c-.09-.09.06-.31.43-.68a10.58,10.58,0,0,1,.62-1.68,2,2,0,0,1,.56-1,3.88,3.88,0,0,1,.74-1.14c.2-.19.37-.34.49-.47a2.72,2.72,0,0,1,2.48-.68c.12,0,.35,0,.68-.06.66-.08,1.05,0,1.18.19,1.28,0,1.77,1.56,1.48,4.7-.16,1.4-.41,2.21-.74,2.42a8.24,8.24,0,0,1-1.89.68,13,13,0,0,0-1.95.62,4.59,4.59,0,0,0-2.78,2.84,5.07,5.07,0,0,1-.38,1.43q-.12,1-.15,1.17a5.88,5.88,0,0,0,0,.75,7.32,7.32,0,0,1-.37,2.35,23.83,23.83,0,0,0-.16,3.74,27.48,27.48,0,0,1-.12,3.63,3.47,3.47,0,0,1-.22,1.05,2.61,2.61,0,0,1,.06.43v.37a5.16,5.16,0,0,1-1.17,1.49l-.93.06c-.95,0-1.47-.06-1.55-.19a1.87,1.87,0,0,1-.93-.74.44.44,0,0,1-.37-.49.86.86,0,0,1-.68-.75c-.45-.49-.68-.82-.68-1a11,11,0,0,1-.5-4.08v-3.16a2.28,2.28,0,0,0,.13-.43v-.56c.25-.25.29-.41.12-.5v-.49a1.07,1.07,0,0,0,.1-.43c0-.25.05-.69.09-1.3a34.48,34.48,0,0,0-.44-5.45,10.31,10.31,0,0,1-.86-2.54,1.94,1.94,0,0,0-.25-.87v-.55c-.16-.5-.31-.76-.43-.78S297.42,231.4,297.42,231.36Z"/><path class="cls-2" d="M325.65,255.75l-.62-.12-.87-.87a.59.59,0,0,1-.55-.31c-.46-.54-1.28-1.61-2.48-3.22l-.93-3.4a3.84,3.84,0,0,0-.37-1.74c-.41-1.85-.66-2.92-.74-3.19a11.86,11.86,0,0,1-.16-2.25,12.85,12.85,0,0,1,.16-2.73,34.45,34.45,0,0,1,2.29-5.82,2.47,2.47,0,0,0,.68-1.48l1-1.43a9.06,9.06,0,0,1,2.91-2.35,7.86,7.86,0,0,1,2.1-.62,7.26,7.26,0,0,1,2,.31q3.7.87,4.64,2.17l.18.31a9.91,9.91,0,0,1,1.37,5.13c-.13,1-.23,1.9-.31,2.61a17.14,17.14,0,0,1-1.36,3.83,16.93,16.93,0,0,1-1.8,2.79,4.43,4.43,0,0,1-1.86,1,2.85,2.85,0,0,1-1.05.12h-1.42a3.41,3.41,0,0,0-.81-.06,7.47,7.47,0,0,1-1.79-.31,14,14,0,0,0,.77,3.87,10.42,10.42,0,0,0,1.27,3.07,10.82,10.82,0,0,0,2,1.3,3.72,3.72,0,0,0,2,.09,3,3,0,0,0,1.8-.84l1.61-2c1-1.4,2.08-1.53,3.16-.37a1.79,1.79,0,0,1,.58,1.58,15.72,15.72,0,0,1-1.27,3.06,12.53,12.53,0,0,1-2,2.48,9.19,9.19,0,0,1-2.29,1,6,6,0,0,1-1.73-.19,3.29,3.29,0,0,1-2.11-.06c0-.08-.11-.13-.34-.15a4.51,4.51,0,0,1-.89-.22l.12-.06h-.74l-1.74-.93Zm4.83-24.58q-.12-.3-.84-.24a1.3,1.3,0,0,0-1.08.74,17.16,17.16,0,0,0-2.72,8.6c1.4.33,2.6-.28,3.59-1.85C330.7,234.37,331.06,232,330.48,231.17Z"/><path class="cls-2" d="M357,231.24a10.1,10.1,0,0,1,.25-2.36,10.76,10.76,0,0,0,.25-2.6q0-1.6.18-4v-1a3.37,3.37,0,0,1,.13-1.12,7.27,7.27,0,0,1,.06-2.66v-.62a2.52,2.52,0,0,1,.25-1.67,5.21,5.21,0,0,1,2-1.36,7.42,7.42,0,0,1,2.14-.62h.31a1.49,1.49,0,0,0,.46.16,5.32,5.32,0,0,1,1,.4,1.49,1.49,0,0,1,.62,1.55,4.92,4.92,0,0,1,.06.8q0,.44-.74,6.22t-.93,7.83l-.06,2.6a.51.51,0,0,0,.43-.31c0-.16.23-.33.56-.49a.88.88,0,0,1,.46-.4,3.39,3.39,0,0,0,.72-.47A6.81,6.81,0,0,1,370,229.5a3,3,0,0,1,1.67.44l.93.49,2.05.74q1,.63,1.11,1l.62,2.42a17.74,17.74,0,0,1,.12,2.57,8.54,8.54,0,0,1-.37,2.88,5.83,5.83,0,0,1-.37,1.73,17.71,17.71,0,0,1-.43,2.72,16.86,16.86,0,0,1-1.3,3.9,2.93,2.93,0,0,0-.59,1.15,6,6,0,0,1-1.52,2.07q-.56,0-1.05,1a8.68,8.68,0,0,1-2.35,1.43,11.84,11.84,0,0,1-2.91,1,6.38,6.38,0,0,0-1.08.09,8.53,8.53,0,0,1-1.37.09,4.25,4.25,0,0,0-1.45.22,3.35,3.35,0,0,1-2-.34,8.56,8.56,0,0,0-1.77-.74c-1.05-.37-1.62-.93-1.7-1.68a2.34,2.34,0,0,1-.56-1.45,13.07,13.07,0,0,0-.15-1.39,12,12,0,0,1-.1-1.86c0-.66.07-2.41.31-5.26.13-1.69.35-3.84.68-6.44C356.48,235.63,356.68,234,357,231.24Zm4.89,10.95a3.9,3.9,0,0,0-.37,1.3,5.33,5.33,0,0,1-.24,1.3,2.78,2.78,0,0,0,.12,2,12.59,12.59,0,0,0,.25,2.42,5,5,0,0,0,.74,2.1l.8.07c-.08-.09,0-.19.31-.31a1.86,1.86,0,0,0,.84-.47,6.48,6.48,0,0,1,.93-.84,4.34,4.34,0,0,0,1.14-1.29,6.89,6.89,0,0,1,1.12-1.8,31.55,31.55,0,0,0,2.16-7.55,7.71,7.71,0,0,0,.53-2.08,3.57,3.57,0,0,0-.34-1.57l-1-.75a2.78,2.78,0,0,0-2,.87l-1.18.93a2.07,2.07,0,0,0-.74.74,6.56,6.56,0,0,0-1.86,2.41s-.08.17-.25.38a5.5,5.5,0,0,0-.43,1.17A2.19,2.19,0,0,0,361.86,242.19Z"/><path class="cls-2" d="M399.5,235v.68a12.32,12.32,0,0,1-2.23,6.81,7.5,7.5,0,0,1-.86,1l-1.36,1.36a5.05,5.05,0,0,1-1.12.81l-1.36.37a3.4,3.4,0,0,0-1.05-.25,1.19,1.19,0,0,1-1.18-.12,4.05,4.05,0,0,1-.65-.25,4.73,4.73,0,0,0-1.45-.31,18.07,18.07,0,0,1,.12,2.17l.74,2.85a3.81,3.81,0,0,0,1.33,1.63,3.31,3.31,0,0,0,1.43.38,2.55,2.55,0,0,0,1.17-.16c.27-.12.74-.31,1.4-.55l1.23-.62a1.58,1.58,0,0,1,2.23.37,1.89,1.89,0,0,1,.44,1.45,2.67,2.67,0,0,1-.75,1.64,3.61,3.61,0,0,1-1.92,1.61,2.91,2.91,0,0,0-.55.25,8.34,8.34,0,0,1-6.19.37l-1.18-.56a.54.54,0,0,1-.37-.18,4.12,4.12,0,0,1-1.61-.93,7.43,7.43,0,0,1-1.21-1.24l-.46-.68a7.51,7.51,0,0,1-.44-.8,18.69,18.69,0,0,1-1.54-3.78l-.37-1.8a4.16,4.16,0,0,0,.06-1.42v-1c-.37-.66-.15-2.17.68-4.52.66-3.14,1.19-5,1.61-5.51l.8-1.61a7.48,7.48,0,0,1,.75-.93,5.18,5.18,0,0,1,1.42-1.24,1,1,0,0,1,.74-.43,2.16,2.16,0,0,1,.81-.43,2.69,2.69,0,0,1,1.48-.56,8,8,0,0,1,2.85-.18q4.4.36,6,3.71l.43,1.36a1.93,1.93,0,0,0,.18.74A1.37,1.37,0,0,0,399.5,235Zm-5.51-.87v-.68c0-.45,0-.68-.06-.68l-.37-.12a1.42,1.42,0,0,1-.68-.13,1.54,1.54,0,0,0-.68.38,2.77,2.77,0,0,0-1.12,1.17l-1.36,2.73a12.5,12.5,0,0,0-1.05,4.95c1.07.45,1.86.43,2.35-.06a3.63,3.63,0,0,0,.74-.87,2.18,2.18,0,0,1,.5-.84,5.07,5.07,0,0,0,.74-2A7,7,0,0,0,394,234.08Z"/><path class="cls-2" d="M433.67,222.2a22,22,0,0,1,2.79.4,17.06,17.06,0,0,1,3.34.87,4.6,4.6,0,0,1,1.43.8,4.45,4.45,0,0,1,.62,1,2.11,2.11,0,0,1,0,1.8,3.54,3.54,0,0,1-2,.93q-2.71.24-4.83.24l-1.85.38c-.05.57-.07,1.42-.07,2.53L433,232v.49l-.37,3.1a16.06,16.06,0,0,0-.31,4.42c0,2.54,0,4.29.06,5.24a21.35,21.35,0,0,0,.68,4.83c.13.82.25,1.48.38,2a2.4,2.4,0,0,1-2.29,1.85,4.78,4.78,0,0,1-3-1l-.8-1.18a1,1,0,0,1,.25.25,5.49,5.49,0,0,1-.81-1.61l-.93-1.73-.43-2.41a3.93,3.93,0,0,1-.37-2v-1.79a8.87,8.87,0,0,0-.13-1.92,7.44,7.44,0,0,0,0-2.23l.13-1.49c0-.16,0-.78.12-1.85a4.52,4.52,0,0,1-.06-1.12l.12-2.72v-1.43c-1,0-2.41.11-4.27.31a35.29,35.29,0,0,0-5.57,1v1.55l.06,5.08v1.42l.19,2.6a15.3,15.3,0,0,0,.43,3.72l.25,2,.49,2.53,1.06,3.6a1.81,1.81,0,0,1-.5,1.54,2.89,2.89,0,0,1-1.92.5c-2.18,0-3.63-.5-4.33-1.49a.39.39,0,0,0-.37-.43,1.3,1.3,0,0,1-.19-.37,12,12,0,0,0-.55-1.24,3.53,3.53,0,0,1-.44-1.55,2.69,2.69,0,0,1-.31-1.24c-.37-.41-.68-1.65-.93-3.71v-.8a6.15,6.15,0,0,1-.46-2.57c-.1-1.51-.15-2.63-.15-3.38v-2l-.07-2v-.44a8.83,8.83,0,0,1,.13-2.53h-.56a8,8,0,0,1-1.86-.13,4.12,4.12,0,0,1-2.54-.8q-1.05-.56-1-.87-.68-1.67,0-2.16a8,8,0,0,1,3.38-.69,9.7,9.7,0,0,0,3.09-.49c.21-1.12.33-1.74.37-1.89a3.5,3.5,0,0,0,.07-.83l.55-1.06c.13,0,.19-.25.19-.74l.87-2.6a4,4,0,0,1,.49-1.3,5.2,5.2,0,0,1,.93-1.73,3.42,3.42,0,0,1,2-.69,4.43,4.43,0,0,1,2.91.93.89.89,0,0,0-.12.31L416,222v.43l-.06.56a2.46,2.46,0,0,1-.13.75v.43l-.06.49a4,4,0,0,1-.12,1.06,17.15,17.15,0,0,0,4.14-.56,20,20,0,0,1,3.35-.62l3.09-.74c.46-2.31.72-3.55.81-3.72l.68-2.47a7,7,0,0,1,.43-1.74c.29-.86.48-1.48.56-1.85a5.2,5.2,0,0,1,1.86-1.3c.08-.13.42-.16,1-.1a3.57,3.57,0,0,1,1.58.53,2.36,2.36,0,0,1,1.48,1.11l-.8,4.52v.06l-.06.81a6,6,0,0,1-.13.87v.06A4.54,4.54,0,0,0,433.67,222.2Z"/><path class="cls-2" d="M454.78,243l-2.29.18a9.81,9.81,0,0,1-3-.37l.18,1.18q.19,5.13,2.85,6.75a3.54,3.54,0,0,0,1.24.31,2.75,2.75,0,0,0,1.3-.5,2.09,2.09,0,0,0,.43-.68.5.5,0,0,1,.62-.5c1.69-2.14,3-3,3.84-2.53s1.3,1,1.3,1.36a.82.82,0,0,1-.31.55v.38a6.64,6.64,0,0,1-.77,2.23,15.75,15.75,0,0,1-1.64,2.72,2.71,2.71,0,0,1-1.12,1.3,6.46,6.46,0,0,1-4.21,1,1.14,1.14,0,0,1-.68-.25,1.7,1.7,0,0,0-.74-.06l-.5-.06a1.64,1.64,0,0,1-.92-.25,2.18,2.18,0,0,0-.87-.37,7.7,7.7,0,0,1-1.95-.93,2.52,2.52,0,0,0-.59-.43,7,7,0,0,1-1.18-1.3,7.67,7.67,0,0,1-.92-.87,4.45,4.45,0,0,0-.65-.8,1.71,1.71,0,0,1-.34-1.12,1.22,1.22,0,0,1-.25-.8l-.25-.5A.77.77,0,0,0,443,248a1.26,1.26,0,0,1-.37-.93v-.49c-.17-.09-.21-.33-.13-.75v-1.61l-.06-.55v-.44a2.84,2.84,0,0,1,.13-1.05l-.07-.56a4,4,0,0,0,.19-1,3.51,3.51,0,0,1,.56-1.61v-.55a1.7,1.7,0,0,0,.06-.5,1.87,1.87,0,0,1,.15-.68q.16-.37,1-2.79l1-2.16a10.32,10.32,0,0,1,1.36-2,5.86,5.86,0,0,1,.5-1.11l.81-.74a2.05,2.05,0,0,1,1.11-.81,3.29,3.29,0,0,1,1.3-.43l1.73-.25a2.69,2.69,0,0,0,.44.06h.8a6.42,6.42,0,0,1,2.23.56,6,6,0,0,1,4.64,5.57,8.41,8.41,0,0,1-.62,3.41,28.37,28.37,0,0,1-2.23,4.45C456.7,242.32,455.81,243,454.78,243Zm.19-8.92a5.25,5.25,0,0,0-.06-2.35,1.74,1.74,0,0,0-1.18-.37c-.62,0-1.18.58-1.67,1.73a11.36,11.36,0,0,0-1.49,3.28h-.06c-.45,1.74-.68,2.67-.68,2.79a6,6,0,0,0,1.61.22,2.68,2.68,0,0,0,1.42-.65A8.93,8.93,0,0,0,455,234.08Z"/><path class="cls-2" d="M466.42,235.63a8.35,8.35,0,0,0-.12-1.3v-.43a2.49,2.49,0,0,0-.06-.93,4.87,4.87,0,0,1,.12-1.12,2.76,2.76,0,0,1,.31-1.61,3.89,3.89,0,0,1,.87-1.42c.16-.16.47-.43.92-.8a11.11,11.11,0,0,1,1.37-.37c.16-.17.72-.11,1.67.18a13.17,13.17,0,0,1,1.92.43,2.91,2.91,0,0,1,1.11,1,11.37,11.37,0,0,0-.4,1.83,11.2,11.2,0,0,0-.22,2.57c.25-.21.68-.64,1.3-1.3l1-1a14.33,14.33,0,0,1,3.16-1.06,4.93,4.93,0,0,1,2.91.31,1.93,1.93,0,0,1,.87.56,3.68,3.68,0,0,1,.92,1.7c.25.81.23,1.31-.06,1.52a6.22,6.22,0,0,1-2.47.5,3.13,3.13,0,0,0-.87.49l-3.22,2.54a5.5,5.5,0,0,0-1.36.87l-1.18,2.16a10.75,10.75,0,0,0-.12,1.61,18.36,18.36,0,0,0,0,2.14c0,.43,0,1.82,0,4.18v2.66c0,1.44,0,2.28-.06,2.51a5.75,5.75,0,0,1-.5,1.2c-.12.21-.52.31-1.18.31-1.6,1.2-2.64,1.14-3.09-.18l-.81-.5a1.08,1.08,0,0,1-.61-.62,2.74,2.74,0,0,1-.5-.8l-.25-.87-.37-.74a6.53,6.53,0,0,1-.31-2.38q-.12-2.32-.12-2.85a5.4,5.4,0,0,0-.13-1.15,2,2,0,0,0,.41-1.48,9.78,9.78,0,0,0-.16-1.64c-.08-.4-.08-.64,0-.75a4.83,4.83,0,0,0-.06-1.7,1.25,1.25,0,0,1-.06-.93Z"/><path class="cls-2" d="M500.22,236.25a25.34,25.34,0,0,1,.06-2.85l.44-2.1,1.23-2.66,1-1.24c0-.33,1.08-.79,3.22-1.36h.07a11.25,11.25,0,0,1,2.13.12,5.92,5.92,0,0,1,2.82,1.21,9.61,9.61,0,0,1,1.86,1.7,9.21,9.21,0,0,1,1.11,4.83,2.72,2.72,0,0,1-.62,1.48c0,.09-.35.21-.93.37a2.24,2.24,0,0,1-1.42,0,7.36,7.36,0,0,1-1.3-.72,1.59,1.59,0,0,1-.68-1.54,1.56,1.56,0,0,1-.25-1.61,1.35,1.35,0,0,0-.19-1.12l-.74-.31c-.25.09-.49.46-.71,1.12A7.37,7.37,0,0,0,507,234a8.79,8.79,0,0,0,1.3,4.71,8.41,8.41,0,0,0,1.48,1.61l1.12,1.36,1.61,1.48,1.17,1.61a9.22,9.22,0,0,1,1.21,1.89,5.62,5.62,0,0,1,.77,2.6,8.14,8.14,0,0,1-.68,2.88l-.55.8c0,.09-.23.36-.68.81a7.86,7.86,0,0,1-4,2.29h-.43a14.13,14.13,0,0,1-3.9-.06l-1.92-.5a1.4,1.4,0,0,1-.68-.21,4.77,4.77,0,0,0-.68-.34,5.73,5.73,0,0,1-1.74-1.49c-.2-.12-.35-.7-.43-1.73a3.27,3.27,0,0,1,.19-2.54,4.4,4.4,0,0,1,.18-1.43,2.46,2.46,0,0,1,3-.61,1,1,0,0,1,.61,1c0,.12.08.54.22,1.27a7.5,7.5,0,0,0,.71,2,1.52,1.52,0,0,0,1.37.93,3,3,0,0,0,1.79-.69,13.81,13.81,0,0,0,1-2.1l.13-.87a2.77,2.77,0,0,0-.56-1.92,3.49,3.49,0,0,0-.87-1.48l-.93-1.36-.93-.87a8.85,8.85,0,0,1-1.54-1,4.12,4.12,0,0,0-.68-.87,8.29,8.29,0,0,1-1.18-1.7,7.19,7.19,0,0,0-1.43-1.83A3.91,3.91,0,0,0,500.22,236.25Z"/><path class="cls-2" d="M539.53,250.12l-.06,1.85a6.14,6.14,0,0,0,.15,1.58,3.21,3.21,0,0,1,.16,1c0,.66-1.16.56-3.47-.31a1.34,1.34,0,0,1-.62,0A1.66,1.66,0,0,1,535,254a1.84,1.84,0,0,0-.4-.25c-.62-.17-.91-.52-.87-1.06a4,4,0,0,0-.21-.68,2.37,2.37,0,0,1-.13-1.05,16.38,16.38,0,0,0-.09-2,7.38,7.38,0,0,1-.06-1.52c.33-1.94.57-3.26.74-4a18.24,18.24,0,0,0,.16-6.19c-.31-2-1.09-3-2.33-3.1-1,0-1.87.65-2.66,1.92q-1.92,3.78-1.92,13.19a12.08,12.08,0,0,0,.37,3,7,7,0,0,1,.28,2.38c-.06.64-.64.91-1.73.81a4.72,4.72,0,0,1-2.14-.53l-.74-.37a.87.87,0,0,1-.93-.68,4.24,4.24,0,0,0-.56-.74l-1.11-1.43a1.09,1.09,0,0,1-.37-.86v-1.12l-.06-.43a2.12,2.12,0,0,1-.34-1.67c.06-.83.25-2.39.58-4.71a56.4,56.4,0,0,0,.69-7.36,14,14,0,0,1,0-2.36l.55-5.63v-2.29a33,33,0,0,1,.93-7.8,6.49,6.49,0,0,1,.47-.9,1.35,1.35,0,0,0,.21-.52,2.4,2.4,0,0,1,.68-1.61l-.12.06a1.53,1.53,0,0,1,.68-.81c.7-.37,1.8-.28,3.28.25a2.79,2.79,0,0,0,.62.37,1.6,1.6,0,0,0,.74.19c.75.49,1.08.95,1,1.36,0,.08-.16.74-.49,2a14.65,14.65,0,0,0-.25,1.61,64.21,64.21,0,0,0-1.86,11.39,6.76,6.76,0,0,1,1.86-1.3,10,10,0,0,1,3.84-.86q4.45.3,6.13,3.59,1.6,2.66,1.17,7.61Q540.58,241,539.53,250.12Z"/><path class="cls-2" d="M567.45,235.2a24.86,24.86,0,0,0,.68,6,42,42,0,0,0,1.12,5.82,4.87,4.87,0,0,1,.12,1.24c1,2.27,1.61,3.62,1.73,4.05a1.38,1.38,0,0,1-.06,1.09v-.06a2,2,0,0,1-1.15,1,6.65,6.65,0,0,1-1.7.59q-2.36.74-2.78-1.8a4.33,4.33,0,0,1-.72-.77,2.49,2.49,0,0,1-.52-1,1.46,1.46,0,0,0-.43-.78,3.47,3.47,0,0,0-.56-.8,1.87,1.87,0,0,1-.5-1l-.18-1.67-.13-.07c-.66,1.37-1.09,2.32-1.3,2.85a21.4,21.4,0,0,1-2.6,4.83,4.5,4.5,0,0,1-5.14,1.36,2.67,2.67,0,0,1-1.76-.68,2.84,2.84,0,0,0-.9-.68,3,3,0,0,1-1-.93,8.47,8.47,0,0,1-1.36-4.39v-1.61a10.47,10.47,0,0,0,0-3v-.37a17.57,17.57,0,0,1-.37-2.23,5.64,5.64,0,0,1,.12-1,1.9,1.9,0,0,0,.06-.77A1.62,1.62,0,0,1,548,240V239l.31-3.35a31.56,31.56,0,0,1,1.49-3.9,3.09,3.09,0,0,1,.93-1.67,19.83,19.83,0,0,0,1.67-1.92c.28-.62,1.36-1.11,3.22-1.48l1,.06a3.82,3.82,0,0,1,1.11.15,2.6,2.6,0,0,0,.68.16,3.39,3.39,0,0,0,1.43.43,4.19,4.19,0,0,1,1.85.87,7.72,7.72,0,0,1,1.86,1.05c1.07.7,1.69,1.09,1.86,1.18l1.61.55a4.31,4.31,0,0,1,.68.62S567.66,233,567.45,235.2Zm-7.24,2.54c0-.13.12-.85.24-2.17a5.83,5.83,0,0,1-.31-1.36,3.54,3.54,0,0,0-1.3-1.49,5.25,5.25,0,0,0-1.17-.43,2.14,2.14,0,0,0-.78.4,13.59,13.59,0,0,0-1,1.76,16.76,16.76,0,0,0-1.36,5.14,41.11,41.11,0,0,0-.53,5.2c0,1.08,0,2.39.13,3.93s.41,2.28,1,2.2,1.28-1.57,2.23-4.46a6.09,6.09,0,0,1,.43-1.11Z"/><path class="cls-2" d="M575.5,235.63a8.49,8.49,0,0,0-.13-1.3v-.43a2.49,2.49,0,0,0-.06-.93,4.87,4.87,0,0,1,.12-1.12,2.84,2.84,0,0,1,.31-1.61,3.89,3.89,0,0,1,.87-1.42c.17-.16.47-.43.93-.8a11.11,11.11,0,0,1,1.36-.37c.17-.17.72-.11,1.67.18a12.9,12.9,0,0,1,1.92.43,2.92,2.92,0,0,1,1.12,1,10.85,10.85,0,0,0-.41,1.83,11.69,11.69,0,0,0-.21,2.57c.24-.21.68-.64,1.3-1.3l1-1a14,14,0,0,1,3.16-1.06,4.89,4.89,0,0,1,2.9.31,1.88,1.88,0,0,1,.87.56,3.78,3.78,0,0,1,.93,1.7c.25.81.23,1.31-.06,1.52a6.29,6.29,0,0,1-2.48.5,3.32,3.32,0,0,0-.86.49l-3.22,2.54a5.61,5.61,0,0,0-1.37.87L584,240.89a9.94,9.94,0,0,0-.13,1.61,18.36,18.36,0,0,0,0,2.14c0,.43,0,1.82,0,4.18v2.66c0,1.44,0,2.28-.06,2.51a5.53,5.53,0,0,1-.49,1.2c-.13.21-.52.31-1.18.31q-2.42,1.8-3.09-.18l-.81-.5a1.1,1.1,0,0,1-.62-.62,2.84,2.84,0,0,1-.49-.8l-.25-.87-.37-.74a6.27,6.27,0,0,1-.31-2.38c-.09-1.55-.13-2.5-.13-2.85a6.08,6.08,0,0,0-.12-1.15,2,2,0,0,0,.4-1.48,10,10,0,0,0-.15-1.64c-.09-.4-.09-.64,0-.75a4.83,4.83,0,0,0-.06-1.7,1.23,1.23,0,0,1-.07-.93Z"/><path class="cls-2" d="M613.44,235v.68a12.39,12.39,0,0,1-2.22,6.81,8.53,8.53,0,0,1-.87,1L609,244.79a4.83,4.83,0,0,1-1.12.81l-1.36.37a3.32,3.32,0,0,0-1-.25,1.19,1.19,0,0,1-1.18-.12,4.05,4.05,0,0,1-.65-.25,4.66,4.66,0,0,0-1.45-.31,18.07,18.07,0,0,1,.12,2.17l.74,2.85a3.75,3.75,0,0,0,1.34,1.63,3.23,3.23,0,0,0,1.42.38,2.6,2.6,0,0,0,1.18-.16c.26-.12.73-.31,1.39-.55l1.24-.62a1.58,1.58,0,0,1,2.23.37,1.93,1.93,0,0,1,.43,1.45,2.65,2.65,0,0,1-.74,1.64,3.69,3.69,0,0,1-1.92,1.61,2.58,2.58,0,0,0-.56.25,8.34,8.34,0,0,1-6.19.37l-1.18-.56a.56.56,0,0,1-.37-.18,4.19,4.19,0,0,1-1.61-.93,7.43,7.43,0,0,1-1.21-1.24l-.46-.68a8.13,8.13,0,0,1-.43-.8,18.2,18.2,0,0,1-1.55-3.78l-.37-1.8a4.16,4.16,0,0,0,.06-1.42v-1c-.37-.66-.15-2.17.68-4.52.66-3.14,1.2-5,1.61-5.51l.8-1.61a7.48,7.48,0,0,1,.75-.93,5.36,5.36,0,0,1,1.42-1.24,1,1,0,0,1,.74-.43,2.16,2.16,0,0,1,.81-.43,2.7,2.7,0,0,1,1.49-.56,8,8,0,0,1,2.84-.18q4.39.36,6,3.71l.43,1.36a1.8,1.8,0,0,0,.19.74A1.32,1.32,0,0,0,613.44,235Zm-5.5-.87v-.68c0-.45,0-.68-.07-.68l-.37-.12a1.44,1.44,0,0,1-.68-.13,1.54,1.54,0,0,0-.68.38A2.68,2.68,0,0,0,605,234l-1.37,2.73a12.5,12.5,0,0,0-1,4.95c1.07.45,1.86.43,2.35-.06a3.92,3.92,0,0,0,.75-.87,2,2,0,0,1,.49-.84,4.91,4.91,0,0,0,.74-2A7,7,0,0,0,607.94,234.08Z"/><path class="cls-2" d="M633.19,211.36a10,10,0,0,1,1.58-.15,5.59,5.59,0,0,0,1.27-.16,11.15,11.15,0,0,1,1.61,2.29l.43,1.61a1.42,1.42,0,0,1,.5.93c.08.62.15,1.15.21,1.58a11.81,11.81,0,0,1,.1,1.77q0,1.61-.44,7.27c-.29,3.78-.55,6.49-.8,8.14L638,238a41.44,41.44,0,0,0,1.18,5.51,12,12,0,0,0,1.54,4.34l.13.49.93,1.55a4.17,4.17,0,0,1,.4,1.86,3.31,3.31,0,0,1-.22,1.3c-.58,1.15-1.15,1.77-1.73,1.86a2.53,2.53,0,0,1-1.36,0,1.61,1.61,0,0,1-1.18-.38,2.67,2.67,0,0,1-.49-.06c-.62.13-1,0-1.18-.43a5.11,5.11,0,0,1-.84-1.33,6.86,6.86,0,0,0-1.08-1.64l-.31-.68a9.93,9.93,0,0,0-.28-1.15.93.93,0,0,1-.09-.28l-2.17,3.41a14.27,14.27,0,0,1-1.61,2.47l-.8.68a3.88,3.88,0,0,1-2.17.19,4.47,4.47,0,0,1-1.05.06l-3.47-.62a5.94,5.94,0,0,1-1.92-2.35,3.07,3.07,0,0,1-.49-1.42,10.46,10.46,0,0,0-.56-2.42l-.12-.93v-.37l-.06-.86a1.77,1.77,0,0,0-.13-1.06l-.06-.55v-1.06a9.48,9.48,0,0,1,.19-1.42,17.88,17.88,0,0,0,0-1.83,9.9,9.9,0,0,1,0-1.45,1.73,1.73,0,0,1,.06-1.05,3.9,3.9,0,0,1,.06-1.49,11.19,11.19,0,0,1,1-3.09,2.79,2.79,0,0,1,.87-2.23,8,8,0,0,1,.62-.93,3.18,3.18,0,0,1,.93-.5l1.48-1a8.8,8.8,0,0,1,4.34-.24l2.47.86a57.32,57.32,0,0,0-.06-6.13c0-.49.07-1.58.22-3.25s.26-3.29.34-4.86l.74-2.6a1.57,1.57,0,0,1,.25-1Zm-7.8,31.95q0,.8-.12,2a11,11,0,0,0,.62,3.77,7.6,7.6,0,0,0,.62,2.3c.28,0,.55-.31.8-.93a6.56,6.56,0,0,1,.43-.87,7.79,7.79,0,0,0,1.24-1.73c.25-.5.5-1,.74-1.49a5.65,5.65,0,0,1,.87-2.32,13.14,13.14,0,0,0,1-1.8,4.3,4.3,0,0,0,.31-2.07,27.22,27.22,0,0,0-.43-3c-.08-.21-.24-.67-.46-1.39a3.4,3.4,0,0,0-.87-1.55,1.38,1.38,0,0,0-1.08-.4c-.38,0-.83.61-1.37,1.73a17.54,17.54,0,0,0-1.42,3.84c-.29,1.24-.47,2-.56,2.23a3.25,3.25,0,0,0-.18,1Z"/></svg>